<svg xmlns="http://www.w3.org/2000/svg" width="242.851" height="251.5" viewBox="0 0 242.851 251.5"><defs><style>.a{opacity:0.15;}.b{stroke:#000;}.c,.e{fill:#fff;}.d,.e{fill-rule:evenodd;}.f{fill:#f66;}</style></defs><g transform="translate(-397.471 -764.5)"><ellipse class="a" cx="105" cy="12" rx="105" ry="12" transform="translate(416 992)"/><g transform="translate(397 764)"><path class="b" d="M391.37,282.006c10.578-18.322-36.014-72.788-36.014-72.788C341,206.457,341,230.6,341,244.859S380.792,300.328,391.37,282.006Z" transform="translate(-150.14 -91.851)"/><path d="M236.549,166.9c0,66.769-39.677,92.975-86.554,92.975S64,233.665,64,166.9,103.118,46,150,46,236.549,100.127,236.549,166.9Z" transform="translate(-27.82 -19.871)"/><path class="b" d="M2.563,285.006c-10.578-18.322,36.014-72.788,36.014-72.788,14.356-2.761,14.356,21.385,14.356,35.641S13.141,303.328,2.563,285.006Z" transform="translate(0 -93.175)"/><ellipse class="c" cx="72" cy="65" rx="72" ry="65" transform="translate(50 82)"/><ellipse cx="13.99" cy="26.472" rx="13.99" ry="26.472" transform="translate(70.777 88.67)"/><ellipse cx="13.99" cy="26.472" rx="13.99" ry="26.472" transform="translate(139.993 88.67)"/><path class="d" d="M70,144.836C80.921,97.384,115.039,40.8,155.437,40.8s74.516,56.587,85.437,104.039a120.137,120.137,0,0,1-170.874,0Z" transform="translate(-30.47 -17.574)"/><path class="e" d="M89.466,187.281c11.216-44.209,39.659-95.719,69.576-57.2,23.457-44.847,67.461,19.534,73.346,61.81a120.194,120.194,0,0,1-142.922-4.607Z" transform="translate(-39.066 -49.274)"/><path class="f" d="M214.621,227.791H195.844l10.309,32.355Z" transform="translate(-86.041 -100.148)"/><ellipse cx="13.99" cy="26.472" rx="13.99" ry="26.472" transform="translate(70.777 88.67)"/><ellipse cx="13.99" cy="26.472" rx="13.99" ry="26.472" transform="translate(139.993 88.67)"/><ellipse class="c" cx="6.627" cy="12.501" rx="6.627" ry="12.501" transform="translate(78.141 107.788)"/><ellipse class="c" cx="6.627" cy="12.501" rx="6.627" ry="12.501" transform="translate(147.356 107.788)"/><ellipse class="c" cx="2.209" cy="4.412" rx="2.209" ry="4.412" transform="translate(91.395 93.817)"/><ellipse class="c" cx="2.209" cy="4.412" rx="2.209" ry="4.412" transform="translate(160.61 93.817)"/><path class="b" d="M194.195,1.9c4.43,5.515,18.409,23.654,27.245,29.782-2.7,2.819-13.254,5.956-33.872-4.044S170.62-3.249,176.891,3.369,190.513,20.4,199.349,22.856C191.986,17.856,189.765-3.617,194.195,1.9Z" transform="translate(-75.498)"/></g></g></svg>